<?xml version="1.0" standalone="no"?>
<!DOCTYPE svg PUBLIC "-//W3C//DTD SVG 20010904//EN"
 "http://www.w3.org/TR/2001/REC-SVG-20010904/DTD/svg10.dtd">
<svg version="1.0" xmlns="http://www.w3.org/2000/svg"
 width="512.000000pt" height="512.000000pt" viewBox="0 0 512.000000 512.000000"
 preserveAspectRatio="xMidYMid meet">
<metadata>
Created by potrace 1.11, written by Peter Selinger 2001-2013
</metadata>
<g transform="translate(0.000000,512.000000) scale(0.100000,-0.100000)"
fill="#000000" stroke="none">
<path d="M2110 3909 c-343 -109 -480 -152 -595 -187 -309 -96 -374 -118 -383
-133 -12 -19 -14 -448 -13 -2271 l1 -1318 1311 0 1311 0 -7 38 c-5 20 -11 825
-14 1787 -4 1139 -9 1755 -16 1765 -5 9 -62 32 -125 52 -210 66 -433 136 -570
178 -74 23 -182 56 -240 75 -58 18 -115 36 -127 40 -45 13 -23 -27 65 -119
110 -116 132 -159 132 -256 0 -89 -15 -123 -83 -187 -71 -67 -273 -167 -337
-167 -64 0 -266 100 -337 167 -68 64 -83 98 -83 187 0 97 22 140 133 256 48
50 87 99 87 108 0 20 3 21 -110 -15z m-250 -1748 l0 -580 -97 -5 c-54 -3 -171
-8 -260 -12 l-163 -6 -2 344 c0 188 -1 415 0 503 1 88 1 199 2 248 l0 87 260
0 260 0 0 -579z m1000 9 c0 -557 0 -570 -20 -590 -19 -19 -33 -20 -410 -20
-377 0 -391 1 -410 20 -20 20 -20 33 -20 590 l0 570 430 0 430 0 0 -570z m660
-20 l0 -590 -260 0 -260 0 0 590 0 590 260 0 260 0 0 -590z"/>
</g>
</svg>
